<svg xmlns="http://www.w3.org/2000/svg" xmlns:xlink="http://www.w3.org/1999/xlink" width="144.941" height="144.941" viewBox="0 0 144.941 144.941">
  <defs>
    <linearGradient id="linear-gradient" x1="0.267" y1="0.851" x2="0.743" y2="0.133" gradientUnits="objectBoundingBox">
      <stop offset="0" stop-color="#eee"/>
      <stop offset="1" stop-color="#fff"/>
    </linearGradient>
    <linearGradient id="linear-gradient-2" x1="0.267" y1="0.851" x2="0.743" y2="0.133" gradientUnits="objectBoundingBox">
      <stop offset="0" stop-color="#09048b"/>
      <stop offset="1" stop-color="#0d0a64"/>
    </linearGradient>
    <linearGradient id="linear-gradient-3" y1="0.5" x2="1" y2="0.5" gradientUnits="objectBoundingBox">
      <stop offset="0" stop-color="#fff"/>
      <stop offset="1" stop-color="#fdfeff"/>
    </linearGradient>
    <linearGradient id="linear-gradient-6" y1="0.5" x2="1" y2="0.5" gradientUnits="objectBoundingBox">
      <stop offset="0" stop-color="#d3ddff"/>
      <stop offset="1" stop-color="#fff"/>
    </linearGradient>
    <linearGradient id="linear-gradient-10" y1="0.5" x2="1" y2="0.5" gradientUnits="objectBoundingBox">
      <stop offset="0" stop-color="#0d33b8"/>
      <stop offset="1" stop-color="#0e44e1"/>
    </linearGradient>
    <linearGradient id="linear-gradient-11" x1="-8.006" y1="-22.73" x2="-8.002" y2="-22.724" gradientUnits="objectBoundingBox">
      <stop offset="0" stop-color="#f4f6ff"/>
      <stop offset="1" stop-color="#cdd7fa"/>
    </linearGradient>
    <linearGradient id="linear-gradient-12" x1="-9.615" y1="-8.093" x2="-9.61" y2="-8.089" gradientUnits="objectBoundingBox">
      <stop offset="0" stop-color="#d1ddff"/>
      <stop offset="1" stop-color="#c9d3ff"/>
    </linearGradient>
    <linearGradient id="linear-gradient-13" x1="-7.533" y1="-7.453" x2="-7.53" y2="-7.458" gradientUnits="objectBoundingBox">
      <stop offset="0" stop-color="#0e44e1"/>
      <stop offset="1" stop-color="#dee6ff"/>
    </linearGradient>
  </defs>
  <g id="surfpay-splash-icon" transform="translate(-1520.75 -1624.422)">
    <path id="Path_2130" data-name="Path 2130" d="M1665.691,1696.9c0,1.143-.017,2.492-.045,3.99-.042,2.16-.112,4.635-.2,7.251-.062,1.847-.129,3.767-.2,5.7-.112,3.046-.235,6.114-.358,8.981-.039.922-.078,1.822-.117,2.694-.288,6.541-.528,11.453-.528,11.453.489,15.43-11.467,28.492-27.336,30.655a33.473,33.473,0,0,1-3.621.3s-11.632.707-24.2,1.132c-5.4.182-10.973.313-15.871.313-16.293,0-40.066-1.445-40.066-1.445a33.638,33.638,0,0,1-4.817-.486c-15.27-2.638-26.618-15.43-26.14-30.471,0,0-.129-2.208-.3-5.7-.212-4.1-.492-9.992-.724-16.153-.235-6.326-.419-12.934-.419-18.21,0-14.781,1.445-40.069,1.445-40.069a28.5,28.5,0,0,1,3.638-14.868,32.211,32.211,0,0,1,27.319-16.092s27.975-1.445,40.066-1.445,40.072,1.445,40.072,1.445c17.631.525,31.482,14.376,30.957,30.96C1664.246,1656.826,1665.691,1686.054,1665.691,1696.9Z" fill="url(#linear-gradient)"/>
    <path id="Path_2299" data-name="Path 2299" d="M1665.691,1696.9c0,1.143-.017,2.492-.045,3.99-.042,2.16-.112,4.635-.2,7.251-.062,1.847-.129,3.767-.2,5.7-.112,3.046-.235,6.114-.358,8.981-.039.922-.078,1.822-.117,2.694-.288,6.541-.528,11.453-.528,11.453.489,15.43-11.467,28.492-27.336,30.655a33.473,33.473,0,0,1-3.621.3s-11.632.707-24.2,1.132c-5.4.182-10.973.313-15.871.313-16.293,0-40.066-1.445-40.066-1.445a33.638,33.638,0,0,1-4.817-.486c-15.27-2.638-26.618-15.43-26.14-30.471,0,0-.129-2.208-.3-5.7-.212-4.1-.492-9.992-.724-16.153-.235-6.326-.419-12.934-.419-18.21,0-14.781,1.445-40.069,1.445-40.069a28.5,28.5,0,0,1,3.638-14.868,32.211,32.211,0,0,1,27.319-16.092s27.975-1.445,40.066-1.445,40.072,1.445,40.072,1.445c17.631.525,31.482,14.376,30.957,30.96C1664.246,1656.826,1665.691,1686.054,1665.691,1696.9Z" fill="url(#linear-gradient-2)"/>
    <circle id="Ellipse_87" data-name="Ellipse 87" cx="39.957" cy="39.957" r="39.957" transform="translate(1553.343 1656.93)" opacity="0.1" fill="url(#linear-gradient-3)"/>
    <path id="Path_2131" data-name="Path 2131" d="M1682.321,1766.079c-.078.047-.156.1-.232.148a56.2,56.2,0,0,1-40.432,28.112c-.053.375-.117.746-.2,1.112a57.272,57.272,0,0,0,42.522-30.5C1683.419,1765.361,1682.855,1765.738,1682.321,1766.079Zm-48.2,29.97c.218,0,.436-.008.657-.017a9.44,9.44,0,0,0,.4-1.079q-.335.012-.671.017A9.936,9.936,0,0,1,1634.124,1796.05Zm-44.154-21.378c-.645-.184-1.243-.366-1.8-.536a57.143,57.143,0,0,0,36.431,21.286,3.1,3.1,0,0,1-.212-1.112A56.07,56.07,0,0,1,1589.97,1774.671Zm43.159-92.879a57.129,57.129,0,0,0-51.441,81.987c.4-.047.794-.067,1.154-.078a56.059,56.059,0,1,1,103.413-6.846,2.826,2.826,0,0,1,.933.567,57.143,57.143,0,0,0-54.059-75.631Z" transform="translate(-39.809 -41.34)" opacity="0.05" fill="url(#linear-gradient-3)"/>
    <path id="Path_2132" data-name="Path 2132" d="M1681.908,1791.373c-.067.025-.134.048-.2.07a47.126,47.126,0,0,1-23.871,11.35,16.167,16.167,0,0,1,.914,3.1,50.454,50.454,0,0,0,30.1-17.2C1686.695,1789.6,1684.37,1790.5,1681.908,1791.373Zm-64.4,3.046a50.272,50.272,0,0,0,24.187,11.431,3.1,3.1,0,0,1,3-2.319c.075,0,.148,0,.221.008a3.111,3.111,0,0,1,.238-.436,46.945,46.945,0,0,1-20.646-7.422C1622.017,1795.3,1619.678,1794.868,1617.507,1794.418Zm32.829-88.747a50.437,50.437,0,0,0-43.752,75.572q1.844.193,4.049.489a47.247,47.247,0,1,1,82.789-6.192q1.978-.428,3.836-.849a50.459,50.459,0,0,0-46.923-69.02Z" transform="translate(-57.017 -58.547)" opacity="0.05" fill="url(#linear-gradient-3)"/>
    <g id="contactless" transform="translate(1586.807 1741.873)">
      <path id="Path_2" data-name="Path 2" d="M1789.494,2044.762a.851.851,0,0,0-.513.17.865.865,0,0,0-.182,1.207,12.727,12.727,0,0,1,0,14.538.865.865,0,1,0,1.391,1.028,14.449,14.449,0,0,0,0-16.592.864.864,0,0,0-.7-.35Z" transform="translate(-1779.836 -2044.762)" fill="url(#linear-gradient-6)"/>
      <path id="Path_2133" data-name="Path 2133" d="M1785.085,2086.782a9.463,9.463,0,0,1-.4,1.079c-.221.008-.439.014-.657.017a9.91,9.91,0,0,0,.388-1.078Q1784.75,2086.794,1785.085,2086.782Z" transform="translate(-1776.518 -2075.041)" fill="url(#linear-gradient-6)"/>
      <path id="Path_3" data-name="Path 3" d="M1779.145,2051.117a.865.865,0,0,0-.686,1.39,9.689,9.689,0,0,1-.006,10.971.866.866,0,0,0,1.371,1.057,11.414,11.414,0,0,0,.009-13.078A.866.866,0,0,0,1779.145,2051.117Z" transform="translate(-1772.372 -2049.341)" fill="url(#linear-gradient-6)"/>
      <path id="Path_4" data-name="Path 4" d="M1761.08,2057.3a.865.865,0,0,0-.651,1.434,7.055,7.055,0,0,1,0,7.42.864.864,0,1,0,1.3,1.137,8.671,8.671,0,0,0,0-9.7.86.86,0,0,0-.652-.3Zm-3.055,1.843a.864.864,0,0,0-.65,1.435,3,3,0,0,1,0,3.731.864.864,0,0,0,1.292,1.147l.007-.008a4.72,4.72,0,0,0,0-6.009A.862.862,0,0,0,1758.025,2059.145Z" transform="translate(-1757.157 -2053.798)" fill="url(#linear-gradient-6)"/>
    </g>
    <path id="Path_2134" data-name="Path 2134" d="M1616.386,1787.368a63.662,63.662,0,1,1,45.016-18.646A63.244,63.244,0,0,1,1616.386,1787.368Zm0-126.788a63.126,63.126,0,1,0,44.637,18.489A62.712,62.712,0,0,0,1616.386,1660.58Z" transform="translate(-23.04 -25.668)" opacity="0.05" fill="url(#linear-gradient-10)"/>
    <path id="Path_367" data-name="Path 367" d="M1745.886,1811.25c-.357,1.422-10.691.8-20.34,1.81-.783-.3-1.606-.569-2.459-.818-10.081-2.927-25.276-.308-35.8,5.2,7.975-5.982,20.424-12.846,31.839-13.139C1738.452,1803.811,1746.382,1809.266,1745.886,1811.25Z" transform="translate(-120.001 -129.598)" fill="url(#linear-gradient-11)"/>
    <path id="Path_368" data-name="Path 368" d="M1713.266,1847.818s-12.391-6.448-26.764,5.456-18.338,28.271-15.364,30.254,6.443-12.4,19.825-22.319c7.965-5.9,19.336-10.75,25.28-2.4C1722.679,1863.112,1713.266,1847.818,1713.266,1847.818Z" transform="translate(-107.701 -159.718)" fill="url(#linear-gradient-12)"/>
    <path id="Path_369" data-name="Path 369" d="M1712.39,1868.35s2.885-34.069-29.023-31.921h-.015c-3.5.288-8.341,2.385-13.149,4.519-6.879,3.1-12.146,3.511-12.827,2.6-.609-.813,2.771-4.538,8.306-8.685,10.527-5.511,25.723-8.128,35.8-5.2.853.248,1.675.521,2.459.818,7.959,2.981,12.544,8.373,13.9,16.045C1720.394,1860.99,1714.868,1870.334,1712.39,1868.35Z" transform="translate(-98.4 -147.02)" fill="url(#linear-gradient-13)"/>
    <ellipse id="Ellipse_18" data-name="Ellipse 18" cx="8.425" cy="8.432" rx="8.425" ry="8.432" transform="translate(1590.697 1654.373)" fill="#c3d2ff"/>
    <path id="Path_370" data-name="Path 370" d="M1594.2,1972s40.229,15.755,79.609,1.761c21.867-7.771,25.139-14.561,19.176-13.139-24.358,5.807-63.018,11.758-84.967,8.326C1585,1965.348,1589.442,1969.151,1594.2,1972Z" transform="translate(-50.171 -242.122)" fill="#c3d2fe"/>
  </g>
</svg>
