<svg xmlns="http://www.w3.org/2000/svg" width="56" height="56" viewBox="0 0 56 56">
  <g id="icon" transform="translate(-0.412 -0.197)">
    <rect id="Rectangle_1871" data-name="Rectangle 1871" width="56" height="56" rx="16" transform="translate(0.412 0.197)" fill="#0e44e1" opacity="0.1"/>
    <g id="card" transform="translate(8.792 16.999)">
      <g id="Group_66" data-name="Group 66">
        <path id="Path_975" data-name="Path 975" d="M7497.715,758c.467.044.937.083,1.4.133a20.108,20.108,0,0,1,8.036,2.514,12.541,12.541,0,0,1,4.968,5,.591.591,0,0,0,.318.276,3.624,3.624,0,0,1,2.016,1.37c.765,1.032,1.487,2.094,2.208,3.155.915,1.344,1.811,2.7,2.719,4.048.1.147.188.286-.008.413s-.319,0-.414-.142c-.606-.9-1.2-1.8-1.81-2.691q-1.477-2.158-2.967-4.306a3.187,3.187,0,0,0-1.527-1.247,1.476,1.476,0,0,0-.477-.107c-.694-.01-1.389,0-2.083,0a.351.351,0,0,0-.415.325c-.152.749-.164.746.519,1.115q1.233.665,2.463,1.332c.067.037.134.079.221.13-.079.139-.146.264-.229.418l-1.5-.8q-2.273-1.206-4.55-2.41a1.028,1.028,0,0,0-1.4.469.612.612,0,0,0,.132.728,8.963,8.963,0,0,0,.772.721c1.418,1.147,2.831,2.3,4.274,3.419a4.75,4.75,0,0,1,1.62,2.179,3.467,3.467,0,0,0,2.769,2.376c.069.014.14.037.2.054.011.021.026.035.024.047-.03.468-.046.472-.5.351a4.108,4.108,0,0,1-2.661-1.923c-.064-.113-.126-.14-.265-.1a4.353,4.353,0,0,0-1.834,1.028,16.13,16.13,0,0,1-6.819,3.684,20.327,20.327,0,0,1-4.6.808,1.26,1.26,0,0,0-.162.03h-3.352a.792.792,0,0,0-.136-.035,22.692,22.692,0,0,1-4.02-.708,17.333,17.333,0,0,1-6.714-3.369,9.935,9.935,0,0,1-3.376-5.038c-.117-.436-.168-.778-.264-1.332a6.836,6.836,0,0,1,0-1.385,1.113,1.113,0,0,0,.039-.175,7.166,7.166,0,0,1,.593-2.248,10.964,10.964,0,0,1,4.045-4.748,19.575,19.575,0,0,1,9.1-3.221c.512-.058,1.028-.092,1.544-.137Zm13.723,7.855c-.051-.1-.081-.172-.117-.238a10.057,10.057,0,0,0-2.137-2.673,15.551,15.551,0,0,0-5.5-3.138,21.937,21.937,0,0,0-9.359-1.025,19.666,19.666,0,0,0-6.434,1.675,13.15,13.15,0,0,0-5.118,3.852,7.419,7.419,0,0,0-.848,8.539,10.658,10.658,0,0,0,3.67,3.855,19.016,19.016,0,0,0,9.731,3.028,22.408,22.408,0,0,0,5.527-.352,18.038,18.038,0,0,0,7.1-2.9c.541-.384,1.038-.828,1.588-1.271l-.422-.2c-.592-.287-1.2-.547-1.767-.87a.95.95,0,0,1-.231-1.513c.1-.115.205-.227.316-.346-.288-.217-.562-.413-.823-.627a.96.96,0,0,1-.192-1.382l.138-.208c-.555-.1-1.081-.184-1.6-.277-.619-.109-1.24-.213-1.856-.338a.746.746,0,0,1-.636-.9c.29-1.386.587-2.771.9-4.153a.871.871,0,0,1,1.044-.693q2.464.4,4.92.84a.745.745,0,0,1,.647.818c-.007.182-.044.362-.072.586Zm-4.931,3.677.025-.063c-.095-.079-.191-.156-.285-.236-.409-.352-.83-.7-1.229-1.06a1.153,1.153,0,0,1-.372-.754,1.308,1.308,0,0,1,.671-1.289,1.409,1.409,0,0,1,1.449-.1c.249.119.5.247.74.377.509.27,1.013.544,1.566.841.119-.663.237-1.3.345-1.929.035-.213-.077-.313-.3-.35-1.037-.169-2.068-.36-3.105-.53-.581-.095-1.167-.168-1.749-.242a.3.3,0,0,0-.38.255c-.3,1.36-.605,2.718-.9,4.078-.058.266.006.357.274.414q.817.173,1.638.323C7505.426,769.36,7505.965,769.443,7506.507,769.532Zm4.262,3.4.084-.111a1.188,1.188,0,0,1-.236-.114c-.218-.17-.421-.354-.637-.525-.771-.61-1.538-1.223-2.32-1.817a.618.618,0,0,0-.472-.115.552.552,0,0,0-.214.993c.577.472,1.185.908,1.787,1.35a4.007,4.007,0,0,0,.609.361A1.8,1.8,0,0,0,7510.769,772.934Zm.692,1.415c-.065-.187-.108-.333-.166-.474-.181-.44-.207-.475-.687-.359a2.388,2.388,0,0,1-2.086-.451,4.811,4.811,0,0,0-.516-.33.285.285,0,0,0-.221-.031.671.671,0,0,0-.392.543.453.453,0,0,0,.271.495c.717.331,1.437.659,2.159.977a.564.564,0,0,0,.346.026C7510.589,774.628,7511,774.491,7511.461,774.349Z" transform="translate(-7480.251 -758)" fill="#0e44e1"/>
        <path id="Path_976" data-name="Path 976" d="M7851,845.756a11.143,11.143,0,0,1-2.24,6.965,4.006,4.006,0,0,1-.39.471,1.169,1.169,0,0,1-1.226.232c-.479-.193-.705-.6-.494-.957.288-.485.62-.955.906-1.441a9.982,9.982,0,0,0,1.23-6.665,10.349,10.349,0,0,0-1.729-4.212c-.141-.214-.271-.432-.4-.65-.2-.349-.02-.743.424-.92a1.263,1.263,0,0,1,1.36.256,11.119,11.119,0,0,1,1.7,2.86A10.2,10.2,0,0,1,7851,845.756Z" transform="translate(-7829.522 -834.771)" fill="#0e44e1"/>
        <path id="Path_977" data-name="Path 977" d="M7785.926,877.366a7.8,7.8,0,0,0-1.342-4.6,6.889,6.889,0,0,1-.464-.779c-.175-.349.015-.695.441-.861a1.235,1.235,0,0,1,1.325.214,10.215,10.215,0,0,1,.829,1.184,8.513,8.513,0,0,1-.29,9.518,3.666,3.666,0,0,1-.618.714,1.123,1.123,0,0,1-1.271.161c-.447-.218-.606-.6-.377-.964a12.577,12.577,0,0,0,1.385-2.61A6.835,6.835,0,0,0,7785.926,877.366Z" transform="translate(-7769.873 -865.814)" fill="#0e44e1"/>
        <path id="Path_978" data-name="Path 978" d="M7724.6,908.022a5.943,5.943,0,0,1-1.352,3.836,3.048,3.048,0,0,1-.228.274,1.194,1.194,0,0,1-1.726-.022.486.486,0,0,1-.073-.632c.282-.47.587-.934.821-1.417a4.74,4.74,0,0,0-.386-4.88c-.153-.243-.315-.484-.442-.735-.189-.379-.043-.646.443-.88a1.331,1.331,0,0,1,1.18.108,2.571,2.571,0,0,1,.479.505A6.025,6.025,0,0,1,7724.6,908.022Z" transform="translate(-7709.851 -896.758)" fill="#0e44e1"/>
        <path id="Path_979" data-name="Path 979" d="M7664.478,936.867a3.649,3.649,0,0,1-.943,2.449,2.49,2.49,0,0,1-.6.49,1.088,1.088,0,0,1-1.065.017c-.384-.209-.577-.553-.432-.844a4.97,4.97,0,0,1,.4-.6,2.46,2.46,0,0,0-.01-3.086c-.1-.143-.216-.28-.315-.424-.252-.37-.111-.749.366-.981a1.119,1.119,0,0,1,1.293.154A3.781,3.781,0,0,1,7664.478,936.867Z" transform="translate(-7652.882 -925.64)" fill="#0e44e1"/>
      </g>
    </g>
  </g>
</svg>
